<svg id="Layer_1" data-name="Layer 1" xmlns="http://www.w3.org/2000/svg" viewBox="0 0 100 100"><defs><style>.cls-1{fill:#757575;}</style></defs><g id="B0Gsfy"><path class="cls-1" d="M39.33,90.6C38.11,89.34,37,88.14,35.81,87c-.44-.43-.35-.8-.12-1.28C37.46,81.84,39.21,78,41,74.1c.22-.49.4-1,.72-1.78-1.62.63-3,1.1-4.26,1.68a1.38,1.38,0,0,1-1.82-.33Q31,69,26.36,64.42A1.46,1.46,0,0,1,26,62.51c.58-1.3,1.05-2.65,1.69-4.29-1,.45-1.74.75-2.46,1.08C21.6,60.94,18,62.57,14.38,64.24a1.19,1.19,0,0,1-1.62-.31c-1-1.13-2.19-2.18-3.36-3.32l3.53-5.33c2.21-3.34,4.44-6.67,6.62-10a1.82,1.82,0,0,1,1.54-.86c4.55-.45,9.08-.93,13.62-1.46a2,2,0,0,0,1.2-.8A89.33,89.33,0,0,1,53.15,23,65.65,65.65,0,0,1,65.84,15a1,1,0,0,1,1.36.22q8,8,15.93,16l.29.31c2,2,2,1.95.71,4.39C78.75,46.2,70.91,54.37,61.65,61.29c-1.29,1-2.66,1.84-3.93,2.83a2,2,0,0,0-.7,1.27c-.53,4.57-1,9.15-1.5,13.72a1.69,1.69,0,0,1-.59,1.11C49.8,83.67,44.64,87.07,39.33,90.6ZM63,45.32A8.4,8.4,0,0,0,71.54,37a8.45,8.45,0,0,0-16.89-.22A8.33,8.33,0,0,0,63,45.32Z"/><path class="cls-1" d="M19.81,71.34l-4.07,1.07a13.84,13.84,0,0,1,5.74-6,10.38,10.38,0,0,1,1-.43,2.53,2.53,0,0,1,3.16.68c2.92,3.08,6,6.06,9,9a1.3,1.3,0,0,1,.33,1.72c-2,4.56-5.53,7.51-9.83,9.71-.56.28-1.15.53-1.72.79a1.34,1.34,0,0,1-.24,0l4.36-6.46-.24-.23a31.1,31.1,0,0,1-14,8.76c.48-4.25,1.58-8,4.2-11.31l-.2-.21-3.81,2.61A13.09,13.09,0,0,1,20,71.58Z"/><path class="cls-1" d="M69.94,13.26a44.58,44.58,0,0,1,10.6-2.75c2.51-.28,5-.35,7.57-.42,1.6-.05,1.72.15,1.78,1.71A46.09,46.09,0,0,1,87,29.35a8.39,8.39,0,0,1-.37.76Z"/></g></svg>